<svg preserveAspectRatio="none" width="100%" height="100%" overflow="visible" style="display: block;" viewBox="0 0 23.3333 23.3333" fill="none" xmlns="http://www.w3.org/2000/svg">
<path id="Vector" d="M17.6667 5.66667V5.68M1 6.33333C1 4.91885 1.5619 3.56229 2.5621 2.5621C3.56229 1.5619 4.91885 1 6.33333 1H17C18.4145 1 19.771 1.5619 20.7712 2.5621C21.7714 3.56229 22.3333 4.91885 22.3333 6.33333V17C22.3333 18.4145 21.7714 19.771 20.7712 20.7712C19.771 21.7714 18.4145 22.3333 17 22.3333H6.33333C4.91885 22.3333 3.56229 21.7714 2.5621 20.7712C1.5619 19.771 1 18.4145 1 17V6.33333ZM7.66667 11.6667C7.66667 12.7275 8.08809 13.7449 8.83824 14.4951C9.58838 15.2452 10.6058 15.6667 11.6667 15.6667C12.7275 15.6667 13.7449 15.2452 14.4951 14.4951C15.2452 13.7449 15.6667 12.7275 15.6667 11.6667C15.6667 10.6058 15.2452 9.58838 14.4951 8.83824C13.7449 8.08809 12.7275 7.66667 11.6667 7.66667C10.6058 7.66667 9.58838 8.08809 8.83824 8.83824C8.08809 9.58838 7.66667 10.6058 7.66667 11.6667Z" stroke="#5B606F" stroke-width="2" stroke-linecap="round" stroke-linejoin="round"/>
</svg>
