<svg preserveAspectRatio="none" width="100%" height="100%" overflow="visible" style="display: block;" viewBox="0 0 17.5 17.5" fill="none" xmlns="http://www.w3.org/2000/svg">
<path id="Vector" d="M4.75 7.75V12.75M4.75 4.75V4.76M8.75 12.75V7.75M12.75 12.75V9.75C12.75 9.21957 12.5393 8.71086 12.1642 8.33579C11.7891 7.96071 11.2804 7.75 10.75 7.75C10.2196 7.75 9.71086 7.96071 9.33579 8.33579C8.96071 8.71086 8.75 9.21957 8.75 9.75M0.75 2.75C0.75 2.21957 0.960714 1.71086 1.33579 1.33579C1.71086 0.960714 2.21957 0.75 2.75 0.75H14.75C15.2804 0.75 15.7891 0.960714 16.1642 1.33579C16.5393 1.71086 16.75 2.21957 16.75 2.75V14.75C16.75 15.2804 16.5393 15.7891 16.1642 16.1642C15.7891 16.5393 15.2804 16.75 14.75 16.75H2.75C2.21957 16.75 1.71086 16.5393 1.33579 16.1642C0.960714 15.7891 0.75 15.2804 0.75 14.75V2.75Z" stroke="#3ABDAA" stroke-width="1.5" stroke-linecap="round" stroke-linejoin="round"/>
</svg>
