<svg preserveAspectRatio="none" width="100%" height="100%" overflow="visible" style="display: block;" viewBox="0 0 17.2503 16.375" fill="none" xmlns="http://www.w3.org/2000/svg">
<path id="Vector" d="M5.12516 4.25V2.5C5.12516 2.03587 5.30954 1.59075 5.63773 1.26256C5.96591 0.934374 6.41103 0.75 6.87516 0.75H10.3752C10.8393 0.75 11.2844 0.934374 11.6126 1.26256C11.9408 1.59075 12.1252 2.03587 12.1252 2.5V4.25M8.62516 8.625V8.63375M0.750162 9.5C3.1928 10.7309 5.88994 11.372 8.62516 11.372C11.3604 11.372 14.0575 10.7309 16.5002 9.5M0.750162 6C0.750162 5.53587 0.934537 5.09075 1.26273 4.76256C1.59091 4.43437 2.03603 4.25 2.50016 4.25H14.7502C15.2143 4.25 15.6594 4.43437 15.9876 4.76256C16.3158 5.09075 16.5002 5.53587 16.5002 6V13.875C16.5002 14.3391 16.3158 14.7842 15.9876 15.1124C15.6594 15.4406 15.2143 15.625 14.7502 15.625H2.50016C2.03603 15.625 1.59091 15.4406 1.26273 15.1124C0.934537 14.7842 0.750162 14.3391 0.750162 13.875V6Z" stroke="#3ABDAA" stroke-width="1.5" stroke-linecap="round" stroke-linejoin="round"/>
</svg>
