<svg preserveAspectRatio="none" width="100%" height="100%" overflow="visible" style="display: block;" viewBox="0 0 14.8333 16.5" fill="none" xmlns="http://www.w3.org/2000/svg">
<path id="Vector" d="M10.75 0.75V4.08333M4.08333 0.75V4.08333M0.75 7.41667H14.0833M0.75 4.08333C0.75 3.64131 0.925595 3.21738 1.23816 2.90482C1.55072 2.59226 1.97464 2.41667 2.41667 2.41667H12.4167C12.8587 2.41667 13.2826 2.59226 13.5952 2.90482C13.9077 3.21738 14.0833 3.64131 14.0833 4.08333V14.0833C14.0833 14.5254 13.9077 14.9493 13.5952 15.2618C13.2826 15.5744 12.8587 15.75 12.4167 15.75H2.41667C1.97464 15.75 1.55072 15.5744 1.23816 15.2618C0.925595 14.9493 0.75 14.5254 0.75 14.0833V4.08333ZM4.08333 10.75H5.75V12.4167H4.08333V10.75Z" stroke="#5B606F" stroke-width="1.5" stroke-linecap="round" stroke-linejoin="round"/>
</svg>
