<svg preserveAspectRatio="none" width="100%" height="100%" overflow="visible" style="display: block;" viewBox="0 0 16.5 16.5" fill="none" xmlns="http://www.w3.org/2000/svg">
<path id="Vector" d="M10.75 9.91667L8.25 8.25V4.08333M0.75 8.25C0.75 9.23491 0.943993 10.2102 1.3209 11.1201C1.69781 12.0301 2.25026 12.8569 2.9467 13.5533C3.64314 14.2497 4.46993 14.8022 5.37987 15.1791C6.28982 15.556 7.26509 15.75 8.25 15.75C9.23491 15.75 10.2102 15.556 11.1201 15.1791C12.0301 14.8022 12.8569 14.2497 13.5533 13.5533C14.2497 12.8569 14.8022 12.0301 15.1791 11.1201C15.556 10.2102 15.75 9.23491 15.75 8.25C15.75 7.26509 15.556 6.28982 15.1791 5.37987C14.8022 4.46993 14.2497 3.64314 13.5533 2.9467C12.8569 2.25026 12.0301 1.69781 11.1201 1.3209C10.2102 0.943993 9.23491 0.75 8.25 0.75C7.26509 0.75 6.28982 0.943993 5.37987 1.3209C4.46993 1.69781 3.64314 2.25026 2.9467 2.9467C2.25026 3.64314 1.69781 4.46993 1.3209 5.37987C0.943993 6.28982 0.75 7.26509 0.75 8.25Z" stroke="#5B606F" stroke-width="1.5" stroke-linecap="round" stroke-linejoin="round"/>
</svg>
