<svg preserveAspectRatio="none" width="100%" height="100%" overflow="visible" style="display: block;" viewBox="0 0 17.5 17.5" fill="none" xmlns="http://www.w3.org/2000/svg">
<path id="Vector" d="M13.25 4.25V4.26M0.75 4.75C0.75 3.68913 1.17143 2.67172 1.92157 1.92157C2.67172 1.17143 3.68913 0.75 4.75 0.75H12.75C13.8109 0.75 14.8283 1.17143 15.5784 1.92157C16.3286 2.67172 16.75 3.68913 16.75 4.75V12.75C16.75 13.8109 16.3286 14.8283 15.5784 15.5784C14.8283 16.3286 13.8109 16.75 12.75 16.75H4.75C3.68913 16.75 2.67172 16.3286 1.92157 15.5784C1.17143 14.8283 0.75 13.8109 0.75 12.75V4.75ZM5.75 8.75C5.75 9.54565 6.06607 10.3087 6.62868 10.8713C7.19129 11.4339 7.95435 11.75 8.75 11.75C9.54565 11.75 10.3087 11.4339 10.8713 10.8713C11.4339 10.3087 11.75 9.54565 11.75 8.75C11.75 7.95435 11.4339 7.19129 10.8713 6.62868C10.3087 6.06607 9.54565 5.75 8.75 5.75C7.95435 5.75 7.19129 6.06607 6.62868 6.62868C6.06607 7.19129 5.75 7.95435 5.75 8.75Z" stroke="#3ABDAA" stroke-width="1.5" stroke-linecap="round" stroke-linejoin="round"/>
</svg>
