<svg preserveAspectRatio="none" width="100%" height="100%" overflow="visible" style="display: block;" viewBox="0 0 17.25 16.375" fill="none" xmlns="http://www.w3.org/2000/svg">
<path id="Vector" d="M13 12.125V13.875C13 14.3391 12.8156 14.7842 12.4874 15.1124C12.1592 15.4406 11.7141 15.625 11.25 15.625H2.5C2.03587 15.625 1.59075 15.4406 1.26256 15.1124C0.934374 14.7842 0.75 14.3391 0.75 13.875V6C0.75 5.53587 0.934374 5.09075 1.26256 4.76256C1.59075 4.43437 2.03587 4.25 2.5 4.25H4.25M6 0.75H8.625L10.375 2.5H14.75C15.2141 2.5 15.6592 2.68437 15.9874 3.01256C16.3156 3.34075 16.5 3.78587 16.5 4.25V10.375C16.5 10.8391 16.3156 11.2842 15.9874 11.6124C15.6592 11.9406 15.2141 12.125 14.75 12.125H6C5.53587 12.125 5.09075 11.9406 4.76256 11.6124C4.43437 11.2842 4.25 10.8391 4.25 10.375V2.5C4.25 2.03587 4.43437 1.59075 4.76256 1.26256C5.09075 0.934374 5.53587 0.75 6 0.75Z" stroke="#3ABDAA" stroke-width="1.5" stroke-linecap="round" stroke-linejoin="round"/>
</svg>
