<svg preserveAspectRatio="none" width="100%" height="100%" overflow="visible" style="display: block;" viewBox="0 0 23.3319 23.3316" fill="none" xmlns="http://www.w3.org/2000/svg">
<path id="Vector" d="M7.66683 15.6671L15.6668 7.66707M10.3335 3.66707L10.9508 2.95241C12.2012 1.70218 13.8971 0.999875 15.6653 1C17.4335 1.00013 19.1293 1.70267 20.3795 2.95307C21.6297 4.20348 22.332 5.89933 22.3319 7.66755C22.3318 9.43576 21.6292 11.1315 20.3788 12.3817L19.6668 13.0004M13.0002 19.6671L12.4709 20.3791C11.2059 21.63 9.49857 22.3316 7.71952 22.3316C5.94047 22.3316 4.23319 21.63 2.96819 20.3791C2.34466 19.7625 1.84965 19.0284 1.5118 18.2193C1.17396 17.4101 1 16.5419 1 15.6651C1 14.7882 1.17396 13.9201 1.5118 13.1109C1.84965 12.3017 2.34466 11.5676 2.96819 10.9511L3.66686 10.3337" stroke="white" stroke-width="2" stroke-linecap="round" stroke-linejoin="round"/>
</svg>
