<svg width="32" height="32" viewBox="0 0 32 32" fill="none" xmlns="http://www.w3.org/2000/svg">
<path d="M4 9.33366C4 8.62641 4.28095 7.94814 4.78105 7.44804C5.28115 6.94794 5.95942 6.66699 6.66667 6.66699H25.3333C26.0406 6.66699 26.7189 6.94794 27.219 7.44804C27.719 7.94814 28 8.62641 28 9.33366M4 9.33366V22.667C4 23.3742 4.28095 24.0525 4.78105 24.5526C5.28115 25.0527 5.95942 25.3337 6.66667 25.3337H25.3333C26.0406 25.3337 26.7189 25.0527 27.219 24.5526C27.719 24.0525 28 23.3742 28 22.667V9.33366M4 9.33366L16 17.3337L28 9.33366" stroke="#3ABDAA" stroke-width="2" stroke-linecap="round" stroke-linejoin="round"/>
</svg>
