<svg preserveAspectRatio="none" width="100%" height="100%" overflow="visible" style="display: block;" viewBox="0 0 26 20.6667" fill="none" xmlns="http://www.w3.org/2000/svg">
<path id="Vector" d="M1 3.66667C1 2.95942 1.28095 2.28115 1.78105 1.78105C2.28115 1.28095 2.95942 1 3.66667 1H22.3333C23.0406 1 23.7189 1.28095 24.219 1.78105C24.719 2.28115 25 2.95942 25 3.66667M1 3.66667V17C1 17.7072 1.28095 18.3855 1.78105 18.8856C2.28115 19.3857 2.95942 19.6667 3.66667 19.6667H22.3333C23.0406 19.6667 23.7189 19.3857 24.219 18.8856C24.719 18.3855 25 17.7072 25 17V3.66667M1 3.66667L13 11.6667L25 3.66667" stroke="#3ABDAA" stroke-width="2" stroke-linecap="round" stroke-linejoin="round"/>
</svg>
