<svg width="32" height="32" viewBox="0 0 32 32" fill="none" xmlns="http://www.w3.org/2000/svg">
<path d="M11.9987 14.6663C11.9987 15.7271 12.4201 16.7446 13.1703 17.4947C13.9204 18.2449 14.9378 18.6663 15.9987 18.6663C17.0596 18.6663 18.077 18.2449 18.8271 17.4947C19.5773 16.7446 19.9987 15.7271 19.9987 14.6663C19.9987 13.6054 19.5773 12.588 18.8271 11.8379C18.077 11.0877 17.0596 10.6663 15.9987 10.6663C14.9378 10.6663 13.9204 11.0877 13.1703 11.8379C12.4201 12.588 11.9987 13.6054 11.9987 14.6663Z" stroke="#3ABDAA" stroke-width="2" stroke-linecap="round" stroke-linejoin="round"/>
<path d="M23.5414 22.2089L17.884 27.8663C17.384 28.3658 16.7061 28.6464 15.9994 28.6464C15.2926 28.6464 14.6147 28.3658 14.1147 27.8663L8.45604 22.2089C6.96433 20.7172 5.94848 18.8165 5.53695 16.7474C5.12542 14.6783 5.33669 12.5336 6.14404 10.5846C6.95139 8.63554 8.31857 6.96966 10.0727 5.79762C11.8268 4.62558 13.8891 4 15.9987 4C18.1083 4 20.1706 4.62558 21.9247 5.79762C23.6788 6.96966 25.046 8.63554 25.8534 10.5846C26.6607 12.5336 26.872 14.6783 26.4605 16.7474C26.0489 18.8165 25.0331 20.7172 23.5414 22.2089Z" stroke="#3ABDAA" stroke-width="2" stroke-linecap="round" stroke-linejoin="round"/>
</svg>
