<svg preserveAspectRatio="none" width="100%" height="100%" overflow="visible" style="display: block;" viewBox="0 0 23.3333 26.6464" fill="none" xmlns="http://www.w3.org/2000/svg">
<g id="Vector">
<path d="M7.66667 11.6663C7.66667 12.7271 8.08809 13.7446 8.83824 14.4947C9.58839 15.2449 10.6058 15.6663 11.6667 15.6663C12.7275 15.6663 13.7449 15.2449 14.4951 14.4947C15.2452 13.7446 15.6667 12.7271 15.6667 11.6663C15.6667 10.6054 15.2452 9.588 14.4951 8.83785C13.7449 8.08771 12.7275 7.66628 11.6667 7.66628C10.6058 7.66628 9.58839 8.08771 8.83824 8.83785C8.08809 9.588 7.66667 10.6054 7.66667 11.6663Z" stroke="#3ABDAA" stroke-width="2" stroke-linecap="round" stroke-linejoin="round"/>
<path d="M19.2093 19.2089L13.552 24.8663C13.052 25.3658 12.3741 25.6464 11.6673 25.6464C10.9606 25.6464 10.2827 25.3658 9.78267 24.8663L4.12401 19.2089C2.6323 17.7172 1.61645 15.8165 1.20492 13.7474C0.793391 11.6783 1.00466 9.53363 1.81201 7.58458C2.61936 5.63554 3.98653 3.96966 5.74065 2.79762C7.49476 1.62558 9.55703 1 11.6667 1C13.7763 1 15.8386 1.62558 17.5927 2.79762C19.3468 3.96966 20.714 5.63554 21.5213 7.58458C22.3287 9.53363 22.54 11.6783 22.1284 13.7474C21.7169 15.8165 20.701 17.7172 19.2093 19.2089Z" stroke="#3ABDAA" stroke-width="2" stroke-linecap="round" stroke-linejoin="round"/>
</g>
</svg>
