<svg preserveAspectRatio="none" width="100%" height="100%" overflow="visible" style="display: block;" viewBox="0 0 25.5 24.1667" fill="none" xmlns="http://www.w3.org/2000/svg">
<g id="Vector">
<path d="M10.0833 2.08333C10.0833 1.72971 10.2238 1.39057 10.4739 1.14052C10.7239 0.890476 11.063 0.75 11.4167 0.75H14.0833C14.437 0.75 14.7761 0.890476 15.0261 1.14052C15.2762 1.39057 15.4167 1.72971 15.4167 2.08333V4.75C15.4167 5.10362 15.2762 5.44276 15.0261 5.69281C14.7761 5.94286 14.437 6.08333 14.0833 6.08333H11.4167C11.063 6.08333 10.7239 5.94286 10.4739 5.69281C10.2238 5.44276 10.0833 5.10362 10.0833 4.75V2.08333Z" fill="#8E929C"/>
<path d="M0.75 19.4167C0.75 19.063 0.890476 18.7239 1.14052 18.4739C1.39057 18.2238 1.72971 18.0833 2.08333 18.0833H4.75C5.10362 18.0833 5.44276 18.2238 5.69281 18.4739C5.94286 18.7239 6.08333 19.063 6.08333 19.4167V22.0833C6.08333 22.437 5.94286 22.7761 5.69281 23.0261C5.44276 23.2762 5.10362 23.4167 4.75 23.4167H2.08333C1.72971 23.4167 1.39057 23.2762 1.14052 23.0261C0.890476 22.7761 0.75 22.437 0.75 22.0833V19.4167Z" fill="#8E929C"/>
<path d="M19.4167 19.4167C19.4167 19.063 19.5571 18.7239 19.8072 18.4739C20.0572 18.2238 20.3964 18.0833 20.75 18.0833H23.4167C23.7703 18.0833 24.1094 18.2238 24.3595 18.4739C24.6095 18.7239 24.75 19.063 24.75 19.4167V22.0833C24.75 22.437 24.6095 22.7761 24.3595 23.0261C24.1094 23.2762 23.7703 23.4167 23.4167 23.4167H20.75C20.3964 23.4167 20.0572 23.2762 19.8072 23.0261C19.5571 22.7761 19.4167 22.437 19.4167 22.0833V19.4167Z" fill="#8E929C"/>
<path d="M5.41667 18.2167L12.0833 6.08333Z" fill="#8E929C"/>
<path d="M20.0833 18.2167L13.4167 6.08333Z" fill="#8E929C"/>
<path d="M6.08333 20.75H19.4167Z" fill="#8E929C"/>
<path d="M5.41667 18.2167L12.0833 6.08333M20.0833 18.2167L13.4167 6.08333M6.08333 20.75H19.4167M10.0833 2.08333C10.0833 1.72971 10.2238 1.39057 10.4739 1.14052C10.7239 0.890476 11.063 0.75 11.4167 0.75H14.0833C14.437 0.75 14.7761 0.890476 15.0261 1.14052C15.2762 1.39057 15.4167 1.72971 15.4167 2.08333V4.75C15.4167 5.10362 15.2762 5.44276 15.0261 5.69281C14.7761 5.94286 14.437 6.08333 14.0833 6.08333H11.4167C11.063 6.08333 10.7239 5.94286 10.4739 5.69281C10.2238 5.44276 10.0833 5.10362 10.0833 4.75V2.08333ZM0.75 19.4167C0.75 19.063 0.890476 18.7239 1.14052 18.4739C1.39057 18.2238 1.72971 18.0833 2.08333 18.0833H4.75C5.10362 18.0833 5.44276 18.2238 5.69281 18.4739C5.94286 18.7239 6.08333 19.063 6.08333 19.4167V22.0833C6.08333 22.437 5.94286 22.7761 5.69281 23.0261C5.44276 23.2762 5.10362 23.4167 4.75 23.4167H2.08333C1.72971 23.4167 1.39057 23.2762 1.14052 23.0261C0.890476 22.7761 0.75 22.437 0.75 22.0833V19.4167ZM19.4167 19.4167C19.4167 19.063 19.5571 18.7239 19.8072 18.4739C20.0572 18.2238 20.3964 18.0833 20.75 18.0833H23.4167C23.7703 18.0833 24.1094 18.2238 24.3595 18.4739C24.6095 18.7239 24.75 19.063 24.75 19.4167V22.0833C24.75 22.437 24.6095 22.7761 24.3595 23.0261C24.1094 23.2762 23.7703 23.4167 23.4167 23.4167H20.75C20.3964 23.4167 20.0572 23.2762 19.8072 23.0261C19.5571 22.7761 19.4167 22.437 19.4167 22.0833V19.4167Z" stroke="#8E929C" stroke-width="1.5" stroke-linecap="round" stroke-linejoin="round"/>
</g>
</svg>
