<svg preserveAspectRatio="none" width="100%" height="100%" overflow="visible" style="display: block;" viewBox="0 0 22.9004 22.9004" fill="none" xmlns="http://www.w3.org/2000/svg">
<path id="Vector" d="M4.81705 14.0833C3.42936 14.8668 2.30725 16.0468 1.59459 17.4721C0.881925 18.8974 0.611175 20.5031 0.817048 22.0833C2.39726 22.2892 4.00295 22.0185 5.42828 21.3058C6.85361 20.5931 8.03362 19.471 8.81705 18.0833M0.817058 12.75C3.19451 13.0325 5.40779 14.1067 7.10073 15.7997C8.79368 17.4926 9.86785 19.7059 10.1504 22.0833C11.329 21.4039 12.3148 20.4351 13.0147 19.2686C13.7146 18.1021 14.1055 16.7763 14.1504 15.4167C16.3892 14.6291 18.3442 13.1953 19.7682 11.2967C21.1922 9.39804 22.0212 7.11978 22.1504 4.75C22.1504 3.68913 21.729 2.67172 20.9788 1.92157C20.2287 1.17143 19.2113 0.75 18.1504 0.75C15.7806 0.87921 13.5024 1.70822 11.6037 3.1322C9.70507 4.55618 8.27131 6.51119 7.48372 8.75C6.12408 8.7949 4.79833 9.18578 3.63181 9.8857C2.46528 10.5856 1.49651 11.5714 0.817058 12.75ZM14.1504 7.41667C14.1504 7.77029 14.2909 8.10943 14.5409 8.35948C14.791 8.60952 15.1301 8.75 15.4837 8.75C15.8373 8.75 16.1765 8.60952 16.4265 8.35948C16.6766 8.10943 16.8171 7.77029 16.8171 7.41667C16.8171 7.06304 16.6766 6.72391 16.4265 6.47386C16.1765 6.22381 15.8373 6.08333 15.4837 6.08333C15.1301 6.08333 14.791 6.22381 14.5409 6.47386C14.2909 6.72391 14.1504 7.06304 14.1504 7.41667Z" stroke="#3ABDAA" stroke-width="1.5" stroke-linecap="round" stroke-linejoin="round"/>
</svg>
