<svg preserveAspectRatio="none" width="100%" height="100%" overflow="visible" style="display: block;" viewBox="0 0 25.5046 25.5" fill="none" xmlns="http://www.w3.org/2000/svg">
<path id="Vector" d="M12.7546 6.08482C11.436 6.08482 10.1471 6.47582 9.05076 7.20836C7.95443 7.9409 7.09995 8.98209 6.59536 10.2003C6.09078 11.4184 5.95876 12.7589 6.21599 14.0521C6.47323 15.3453 7.10817 16.5332 8.04052 17.4655C8.97287 18.3979 10.1608 19.0328 11.454 19.2901C12.7472 19.5473 14.0876 19.4153 15.3058 18.9107C16.524 18.4061 17.5651 17.5516 18.2977 16.4553C19.0302 15.359 19.4212 14.07 19.4212 12.7515M14.0879 0.824823C11.616 0.547505 9.11896 1.0452 6.94227 2.24905C4.76558 3.45291 3.01679 5.30343 1.93779 7.54464C0.858798 9.78584 0.502932 12.307 0.91942 14.7593C1.33591 17.2116 2.50417 19.4738 4.26259 21.2332C6.02102 22.9925 8.2827 24.1619 10.7348 24.5796C13.1869 24.9973 15.7082 24.6427 17.9499 23.5649C20.1917 22.487 22.0431 20.7391 23.248 18.563C24.453 16.387 24.9519 13.8902 24.6759 11.4182M16.7546 8.75149V4.75149L20.7546 0.751491V4.75149H24.7546L20.7546 8.75149H16.7546ZM16.7546 8.75149L12.7546 12.7515M11.4212 12.7515C11.4212 13.1051 11.5617 13.4443 11.8117 13.6943C12.0618 13.9443 12.4009 14.0848 12.7546 14.0848C13.1082 14.0848 13.4473 13.9443 13.6974 13.6943C13.9474 13.4443 14.0879 13.1051 14.0879 12.7515C14.0879 12.3979 13.9474 12.0587 13.6974 11.8087C13.4473 11.5586 13.1082 11.4182 12.7546 11.4182C12.4009 11.4182 12.0618 11.5586 11.8117 11.8087C11.5617 12.0587 11.4212 12.3979 11.4212 12.7515Z" stroke="#3ABDAA" stroke-width="1.5" stroke-linecap="round" stroke-linejoin="round"/>
</svg>
