<svg preserveAspectRatio="none" width="100%" height="100%" overflow="visible" style="display: block;" viewBox="0 0 18.2218 25.9988" fill="none" xmlns="http://www.w3.org/2000/svg">
<path id="Vector" d="M11.748 0.766602C11.8735 0.735716 12.0059 0.747442 12.124 0.799805C12.2422 0.852216 12.34 0.942852 12.4014 1.05664C12.4473 1.14198 12.4706 1.23707 12.4707 1.33301L12.4629 1.42871L11.0566 9.87598L10.9111 10.749H16.8887C16.9982 10.7491 17.1054 10.7807 17.1982 10.8389C17.2911 10.8971 17.3663 10.9804 17.4141 11.0791C17.4616 11.1776 17.4807 11.2877 17.4688 11.3965C17.4597 11.4784 17.433 11.5574 17.3916 11.6279L17.3457 11.6953L6.79004 25.0283C6.70974 25.1295 6.59807 25.2015 6.47266 25.2324C6.34725 25.2633 6.21477 25.2515 6.09668 25.1992C5.9785 25.1468 5.88069 25.0562 5.81934 24.9424C5.77333 24.857 5.75008 24.762 5.75 24.666L5.75781 24.5703L7.16406 16.123L7.30957 15.249H1.33301C1.22352 15.2489 1.11619 15.2183 1.02344 15.1602C0.930619 15.1019 0.85529 15.0186 0.807617 14.9199C0.759975 14.8212 0.741876 14.7105 0.753906 14.6016C0.762996 14.5199 0.78885 14.4414 0.830078 14.3711L0.875977 14.3037L11.4307 0.970703C11.511 0.869497 11.6226 0.797491 11.748 0.766602Z" fill="black" stroke="#3ABDAA" stroke-width="1.5"/>
</svg>
