<svg preserveAspectRatio="none" width="100%" height="100%" overflow="visible" style="display: block;" viewBox="0 0 24 24" fill="none" xmlns="http://www.w3.org/2000/svg">
<g id="Vector">
<path d="M9.90625 2.39625C10.4387 0.20125 13.5613 0.20125 14.0938 2.39625C14.1736 2.726 14.3303 3.03222 14.5509 3.29C14.7715 3.54778 15.0499 3.74982 15.3633 3.87968C15.6768 4.00955 16.0165 4.06356 16.3547 4.03734C16.693 4.01111 17.0203 3.90538 17.31 3.72875C19.2387 2.55375 21.4475 4.76125 20.2725 6.69125C20.0961 6.98082 19.9906 7.30792 19.9644 7.64597C19.9382 7.98401 19.9922 8.32346 20.1219 8.63672C20.2516 8.94999 20.4534 9.22822 20.7109 9.44882C20.9684 9.66941 21.2743 9.82613 21.6038 9.90625C23.7988 10.4387 23.7988 13.5613 21.6038 14.0938C21.274 14.1736 20.9678 14.3303 20.71 14.5509C20.4522 14.7715 20.2502 15.0499 20.1203 15.3633C19.9905 15.6768 19.9364 16.0165 19.9627 16.3547C19.9889 16.693 20.0946 17.0203 20.2713 17.31C21.4463 19.2387 19.2387 21.4475 17.3087 20.2725C17.0192 20.0961 16.6921 19.9906 16.354 19.9644C16.016 19.9382 15.6765 19.9922 15.3633 20.1219C15.05 20.2516 14.7718 20.4534 14.5512 20.7109C14.3306 20.9684 14.1739 21.2743 14.0938 21.6038C13.5613 23.7988 10.4387 23.7988 9.90625 21.6038C9.82635 21.274 9.66972 20.9678 9.44911 20.71C9.2285 20.4522 8.95014 20.2502 8.63669 20.1203C8.32323 19.9905 7.98354 19.9364 7.64527 19.9627C7.30699 19.9889 6.97969 20.0946 6.69 20.2713C4.76125 21.4463 2.5525 19.2387 3.7275 17.3087C3.90388 17.0192 4.00944 16.6921 4.0356 16.354C4.06177 16.016 4.0078 15.6765 3.87809 15.3633C3.74838 15.05 3.54658 14.7718 3.28909 14.5512C3.03161 14.3306 2.7257 14.1739 2.39625 14.0938C0.20125 13.5613 0.20125 10.4387 2.39625 9.90625C2.726 9.82635 3.03222 9.66972 3.29 9.44911C3.54778 9.2285 3.74982 8.95014 3.87968 8.63669C4.00955 8.32323 4.06356 7.98354 4.03734 7.64527C4.01111 7.30699 3.90538 6.97969 3.72875 6.69C2.55375 4.76125 4.76125 2.5525 6.69125 3.7275C7.94125 4.4875 9.56125 3.815 9.90625 2.39625Z" stroke="#0D153A" stroke-width="1.5" stroke-linecap="round" stroke-linejoin="round"/>
<path d="M8.25 12C8.25 12.9946 8.64509 13.9484 9.34835 14.6517C10.0516 15.3549 11.0054 15.75 12 15.75C12.9946 15.75 13.9484 15.3549 14.6517 14.6517C15.3549 13.9484 15.75 12.9946 15.75 12C15.75 11.0054 15.3549 10.0516 14.6517 9.34835C13.9484 8.64509 12.9946 8.25 12 8.25C11.0054 8.25 10.0516 8.64509 9.34835 9.34835C8.64509 10.0516 8.25 11.0054 8.25 12Z" stroke="#0D153A" stroke-width="1.5" stroke-linecap="round" stroke-linejoin="round"/>
</g>
</svg>
