<svg preserveAspectRatio="none" width="100%" height="100%" overflow="visible" style="display: block;" viewBox="0 0 23.9678 24" fill="none" xmlns="http://www.w3.org/2000/svg">
<path id="Vector" d="M11.9839 12C11.6524 12 11.3344 11.8683 11.1 11.6339C10.8656 11.3995 10.7339 11.0815 10.7339 10.75C10.7339 10.4185 10.8656 10.1005 11.1 9.86612C11.3344 9.6317 11.6524 9.5 11.9839 9.5C12.3154 9.5 12.6334 9.6317 12.8678 9.86612C13.1022 10.1005 13.2339 10.4185 13.2339 10.75C13.2339 11.0815 13.1022 11.3995 12.8678 11.6339C12.6334 11.8683 12.3154 12 11.9839 12ZM11.9839 12V15.125M11.9839 0.75C14.9037 3.33322 18.7145 4.67821 22.6089 4.5C23.1759 6.42877 23.3494 8.45183 23.1191 10.449C22.8888 12.4461 22.2593 14.3766 21.2682 16.1257C20.277 17.8747 18.9444 19.4067 17.3495 20.6306C15.7546 21.8545 13.9299 22.7453 11.9839 23.25C10.0379 22.7453 8.21327 21.8545 6.61836 20.6306C5.02344 19.4067 3.69081 17.8747 2.69967 16.1257C1.70853 14.3766 1.07909 12.4461 0.848768 10.449C0.618445 8.45183 0.791933 6.42877 1.35892 4.5C5.25333 4.67821 9.06413 3.33322 11.9839 0.75Z" stroke="#0D153A" stroke-width="1.5" stroke-linecap="round" stroke-linejoin="round"/>
</svg>
