<svg preserveAspectRatio="none" width="100%" height="100%" overflow="visible" style="display: block;" viewBox="0 0 24.0043 24" fill="none" xmlns="http://www.w3.org/2000/svg">
<path id="Vector" d="M12.0043 5.7514C10.7681 5.7514 9.55977 6.11795 8.53196 6.80471C7.50415 7.49147 6.70308 8.46759 6.23003 9.60963C5.75698 10.7517 5.63321 12.0083 5.87437 13.2207C6.11553 14.4331 6.71078 15.5467 7.58486 16.4208C8.45894 17.2949 9.57258 17.8901 10.785 18.1313C11.9973 18.3725 13.254 18.2487 14.396 17.7756C15.5381 17.3026 16.5142 16.5015 17.201 15.4737C17.8877 14.4459 18.2543 13.2375 18.2543 12.0014M13.2543 0.820147C10.9368 0.560161 8.5959 1.02675 6.55526 2.15536C4.51461 3.28398 2.87511 5.01884 1.86356 7.11997C0.851998 9.2211 0.518374 11.5847 0.908831 13.8837C1.29929 16.1827 2.39453 18.3036 4.04306 19.953C5.69158 21.6023 7.81191 22.6986 10.1107 23.0902C12.4096 23.4819 14.7733 23.1494 16.8749 22.1389C18.9766 21.1284 20.7123 19.4898 21.8419 17.4497C22.9716 15.4096 23.4393 13.0689 23.1805 10.7514M15.7543 8.2514V4.5014L19.5043 0.751398V4.5014H23.2543L19.5043 8.2514H15.7543ZM15.7543 8.2514L12.0043 12.0014M10.7543 12.0014C10.7543 12.3329 10.886 12.6509 11.1204 12.8853C11.3548 13.1197 11.6728 13.2514 12.0043 13.2514C12.3358 13.2514 12.6537 13.1197 12.8882 12.8853C13.1226 12.6509 13.2543 12.3329 13.2543 12.0014C13.2543 11.6699 13.1226 11.3519 12.8882 11.1175C12.6537 10.8831 12.3358 10.7514 12.0043 10.7514C11.6728 10.7514 11.3548 10.8831 11.1204 11.1175C10.886 11.3519 10.7543 11.6699 10.7543 12.0014Z" stroke="#0D153A" stroke-width="1.5" stroke-linecap="round" stroke-linejoin="round"/>
</svg>
