<svg preserveAspectRatio="none" width="100%" height="100%" overflow="visible" style="display: block;" viewBox="0 0 78.8052 30.8654" fill="none" xmlns="http://www.w3.org/2000/svg">
<path id="Vector" d="M1.12951 9.10869C1.90825 9.92338 2.79743 10.6588 3.44853 11.565C9.24563 19.634 17.5838 23.6904 26.8697 25.8831C30.0753 26.64 33.7164 26.5673 36.9688 25.9201C46.2648 24.0703 54.7838 20.2477 62.1272 14.1459C64.2438 12.3871 66.029 10.2296 67.5714 7.70506C66.7225 8.02471 65.8609 8.31467 65.027 8.66961C62.571 9.71527 60.1633 10.8894 57.6593 11.8006C56.5661 12.1985 55.279 12.192 54.0911 12.1351C53.6505 12.114 52.9803 11.4729 52.8952 11.0235C52.8162 10.6068 53.2799 9.75276 53.6719 9.63137C60.1319 7.63077 65.6781 3.84608 71.5252 0.644655C73.5749 -0.477642 74.8697 -0.166549 75.736 1.82988C77.9369 6.90181 78.9091 12.2551 78.7964 17.7903C78.7927 17.974 78.5053 18.1519 78.07 18.6584C73.5729 16.971 74.9727 12.1559 72.757 8.27742C72.1997 9.20494 71.8716 9.94466 71.3763 10.5467C61.7905 22.1963 49.1726 28.3621 34.507 30.6637C32.2736 31.0142 29.8743 30.8756 27.6311 30.4951C19.2891 29.0801 11.8518 25.59 5.70946 19.7485C3.73068 17.8667 2.31167 15.3541 0.840925 13.0023C0.269805 12.0891 0.263594 10.8227 0 9.71717C0.37653 9.51437 0.752984 9.31149 1.12951 9.10869Z" fill="#8E929C"/>
</svg>
